<svg height="20" viewBox="0 0 20 20" width="20" xmlns="http://www.w3.org/2000/svg"><path d="m5.75 3.99998154c.19319-.00094154.38769.07227846.53509.21967846l3.00831 3.00831c.29289.29289.29289.76777 0 1.06066s-.76777.29289-1.06066 0l-1.73274-1.73274v8.69411c0 .4142-.33579.7499815-.75.7499815s-.75-.3357815-.75-.7499815v-8.68361l-1.71773 1.71772c-.29289.2929-.76776.2929-1.06065 0-.2929-.29289-.2929-.76776 0-1.06066l2.9457-2.94571c.13751-.16945.34745-.27775846.58268-.27775846zm8.5019.00000846c.4143 0 .75.33579.75.75v8.68361l1.7178-1.7177c.2929-.2929.7677-.2929 1.0606 0s.2929.7677 0 1.0606l-2.9457 2.9457c-.1375.1695-.3474.27782-.5827.27782-.1931.00098-.3876-.07232-.535-.21972l-3.0084-3.0083c-.2928-.2929-.2928-.7677 0-1.0606.2929-.2929.7678-.2929 1.0607 0l1.7327 1.7327v-8.69411c0-.41421.3358-.75.75-.75z" fill="#212121"/></svg>