<?xml version="1.0" encoding="iso-8859-1"?>
<!-- Uploaded to: SVG Repo, www.svgrepo.com, Generator: SVG Repo Mixer Tools -->
<svg fill="#000000" height="800px" width="800px" version="1.1" id="Layer_1" xmlns="http://www.w3.org/2000/svg" xmlns:xlink="http://www.w3.org/1999/xlink" 
	 viewBox="0 0 330 330" xml:space="preserve">
<path id="XMLID_443_" d="M295.001,160.016L280,160.015V115c0-8.284-6.716-15-15-15h-16.352
	C242.411,65.137,214.863,37.589,180,31.353V15c0-8.284-6.716-15-15-15s-15,6.716-15,15v16.353
	C115.137,37.589,87.589,65.137,81.353,100H65c-8.284,0-15,6.716-15,15v45.001L35.001,160c-0.001,0,0,0-0.001,0
	c-3.978,0-7.793,1.581-10.606,4.393C21.58,167.206,20,171.021,20,175v140c0,8.284,6.716,15,15,15h260c8.284,0,15-6.716,15-15
	V175.016C310,166.732,303.285,160.017,295.001,160.016z M165,60c25.127,0,46.356,16.943,52.904,40H112.096
	C118.644,76.943,139.873,60,165,60z M80,130h170v29.995l-170,0.005V130z M180,270v30h-30v-30H180z M280,300h-70v-30h5
	c8.284,0,15-6.716,15-15c0-8.284-6.716-15-15-15H115c-8.284,0-15,6.716-15,15c0,8.284,6.716,15,15,15h5v30H50V190.001l230,0.014V300
	z"/>
</svg>