<svg width="26" height="26" viewBox="0 0 26 26" fill="none" xmlns="http://www.w3.org/2000/svg">
<path d="M9.0166 7.28359L9.9357 8.20269C11.6286 6.51009 14.3718 6.51009 16.0639 8.20269L16.9838 7.28359C14.7831 5.08321 11.2172 5.08321 9.0166 7.28359Z" fill="#1E202A"/>
<path d="M21.6667 11.2666C21.6667 6.4797 17.788 2.59998 13.0001 2.59998C8.2135 2.59998 4.33352 6.4797 4.33352 11.2666C3.87379 11.2666 3.43288 11.4492 3.1078 11.7743C2.78273 12.0993 2.6001 12.5402 2.6001 13V18.2C2.6001 18.6597 2.78273 19.1006 3.1078 19.4257C3.43288 19.7508 3.87379 19.9334 4.33352 19.9334H6.93352C7.04735 19.9334 7.16007 19.911 7.26524 19.8675C7.37041 19.8239 7.46597 19.7601 7.54645 19.6796C7.62693 19.5991 7.69075 19.5035 7.73428 19.3983C7.7778 19.2931 7.80017 19.1804 7.8001 19.0666V14.7334C7.8001 14.2568 7.58378 13.5416 7.31936 13.1456L6.06694 11.2668C6.06694 7.43702 9.17082 4.3334 13.0004 4.3334C16.8309 4.3334 19.9338 7.43702 19.9338 11.2668L18.6811 13.1456C18.4167 13.5416 18.2001 14.2568 18.2001 14.7334V19.3089C16.9297 20.7519 15.0739 21.6666 13.0001 21.6666H11.2667V23.4H13.0001C15.8336 23.4 18.3405 22.0347 19.9216 19.9334H21.6667C22.1264 19.9334 22.5673 19.7508 22.8924 19.4257C23.2175 19.1006 23.4001 18.6597 23.4001 18.2V13C23.4001 12.5402 23.2175 12.0993 22.8924 11.7743C22.5673 11.4492 22.1264 11.2666 21.6667 11.2666Z" fill="#1E202A"/>
</svg>
