<svg xmlns="http://www.w3.org/2000/svg" shape-rendering="geometricPrecision" text-rendering="geometricPrecision" image-rendering="optimizeQuality" fill-rule="evenodd" clip-rule="evenodd" viewBox="0 0 512 506.49"><path fill-rule="nonzero" d="M294.24 17.11C294.24 7.69 303.53 0 315.1 0s20.87 7.65 20.87 17.11v74.85c0 9.42-9.3 17.11-20.87 17.11s-20.86-7.65-20.86-17.11V17.11zm98.87 290.88c7.59 7.63 4.81 19.4-3.13 25.89-7.68 6.18-21.55 9.16-29.45 1.88-7.98-7.42-4.81-19.38 2.84-25.9 7.36-6.22 21.95-9.63 29.74-1.87zm-45.06 103.37h6.52v-47.23h-12.34c0-16.8 30.84-5.9 53.55-11.61v58.84h8.58v18.04h-56.31v-18.04zm29.77-173.25c36.98 0 70.56 15.04 94.83 39.35C496.96 301.7 512 335.25 512 372.31c0 36.99-15.04 70.56-39.3 94.83-24.32 24.31-57.89 39.35-94.88 39.35-37.03 0-70.56-15.04-94.84-39.3-24.32-24.27-39.34-57.86-39.34-94.88 0-37.06 15.04-70.61 39.31-94.89l.69-.63c24.24-23.9 57.53-38.68 94.18-38.68zm78.73 55.41c-20.08-20.11-47.95-32.58-78.73-32.58-30.5 0-58.14 12.25-78.19 32.02l-.55.6c-20.15 20.14-32.62 48-32.62 78.75s12.46 58.6 32.61 78.75c20.1 20.13 47.98 32.6 78.75 32.6 30.76 0 58.65-12.47 78.77-32.58 20.11-20.12 32.58-48.01 32.58-78.77 0-30.75-12.47-58.61-32.62-78.79zM56.81 242.28c-1.18 0-2.24-5.2-2.24-11.57 0-6.38.94-11.53 2.24-11.53h56.94c1.19 0 2.24 5.2 2.24 11.53 0 6.39-.93 11.57-2.24 11.57H56.81zm90.78 0c-1.19 0-2.25-5.2-2.25-11.57 0-6.38.94-11.53 2.25-11.53h56.94c1.18 0 2.24 5.2 2.24 11.53 0 6.39-.94 11.57-2.24 11.57h-56.94zm90.77 0c-1.19 0-2.24-5.2-2.24-11.57 0-6.38.93-11.53 2.24-11.53h56.94c1.18 0 2.24 5.15 2.24 11.49-5.71 3.55-11.2 7.44-16.44 11.61h-42.74zM56.94 308.52c-1.18 0-2.24-5.2-2.24-11.57 0-6.39.93-11.58 2.24-11.58h56.94c1.18 0 2.24 5.19 2.24 11.58 0 6.37-.93 11.57-2.24 11.57H56.94zm90.77 0c-1.18 0-2.24-5.2-2.24-11.57 0-6.39.93-11.58 2.24-11.58h56.94c1.18 0 2.24 5.19 2.24 11.58 0 6.37-.93 11.57-2.24 11.57h-56.94zM57.06 374.8c-1.18 0-2.24-5.2-2.24-11.59 0-6.36.94-11.56 2.24-11.56H114c1.19 0 2.24 5.2 2.24 11.56 0 6.39-.93 11.59-2.24 11.59H57.06zm90.77 0c-1.18 0-2.24-5.2-2.24-11.59 0-6.36.94-11.56 2.24-11.56h56.94c1.19 0 2.25 5.2 2.25 11.56 0 6.39-.94 11.59-2.25 11.59h-56.94zM106.82 17.11c0-9.42 9.3-17.11 20.87-17.11s20.86 7.65 20.86 17.11v74.85c0 9.42-9.33 17.11-20.86 17.11-11.57 0-20.87-7.65-20.87-17.11V17.11zM22.98 163.64h397.39V77.46c0-2.94-1.18-5.53-3.08-7.43-1.9-1.9-4.61-3.08-7.45-3.08h-38.09c-6.39 0-11.57-5.2-11.57-11.57 0-6.38 5.18-11.58 11.57-11.58h38.09c9.35 0 17.71 3.77 23.83 9.89 6.13 6.13 9.88 14.49 9.88 23.82v136.81c-7.6-2.62-15.41-4.73-23.45-6.29v-21.38h.27H22.98v223.16c0 2.95 1.18 5.53 3.08 7.43 1.9 1.9 4.61 3.08 7.43 3.08h188.86a169.63 169.63 0 0 0 8.11 23.36H33.71c-9.3 0-17.7-3.75-23.82-9.89C3.75 427.72 0 419.36 0 410.02V77.55c0-9.29 3.75-17.7 9.89-23.82 6.12-6.13 14.48-9.89 23.82-9.89h40.67c6.38 0 11.58 5.21 11.58 11.57 0 6.39-5.2 11.59-11.58 11.59H33.71c-2.96 0-5.54 1.18-7.44 3.08-1.9 1.9-3.09 4.59-3.09 7.43v86.16h-.2v-.03zm158.94-96.69c-6.37 0-11.57-5.2-11.57-11.57 0-6.38 5.2-11.58 11.57-11.58h77.55c6.39 0 11.58 5.2 11.58 11.58 0 6.37-5.19 11.57-11.58 11.57h-77.55z"/></svg>