<svg width="24" height="24" viewBox="0 0 24 24" fill="none" xmlns="http://www.w3.org/2000/svg">
<path d="M21.6599 10.44L20.6799 14.62C19.8399 18.23 18.1799 19.69 15.0599 19.39C14.5599 19.35 14.0199 19.26 13.4399 19.12L11.7599 18.72C7.58994 17.73 6.29994 15.67 7.27994 11.49L8.25994 7.30001C8.45994 6.45001 8.69994 5.71001 8.99994 5.10001C10.1699 2.68001 12.1599 2.03001 15.4999 2.82001L17.1699 3.21001C21.3599 4.19001 22.6399 6.26001 21.6599 10.44Z" stroke="#1E202A" stroke-width="1.5" stroke-linecap="round" stroke-linejoin="round"/>
<path d="M15.0603 19.39C14.4403 19.81 13.6603 20.16 12.7103 20.47L11.1303 20.99C7.16034 22.27 5.07034 21.2 3.78034 17.23L2.50034 13.28C1.22034 9.30998 2.28034 7.20998 6.25034 5.92998L7.83034 5.40998C8.24034 5.27998 8.63034 5.16998 9.00034 5.09998C8.70034 5.70998 8.46034 6.44998 8.26034 7.29998L7.28034 11.49C6.30034 15.67 7.59034 17.73 11.7603 18.72L13.4403 19.12C14.0203 19.26 14.5603 19.35 15.0603 19.39Z" stroke="#1E202A" stroke-width="1.5" stroke-linecap="round" stroke-linejoin="round"/>
<path d="M12.6396 8.53003L17.4896 9.76003" stroke="#1E202A" stroke-width="1.5" stroke-linecap="round" stroke-linejoin="round"/>
<path d="M11.6599 12.4L14.5599 13.14" stroke="#1E202A" stroke-width="1.5" stroke-linecap="round" stroke-linejoin="round"/>
</svg>
