<svg width="26" height="26" viewBox="0 0 26 26" fill="none" xmlns="http://www.w3.org/2000/svg">
<path d="M13.7348 21.6202C14.0324 21.6894 14.0597 22.0792 13.7698 22.1759V22.1759L12.0581 22.7392C7.75728 24.1259 5.49311 22.9667 4.09561 18.6659L2.70895 14.3867C1.32228 10.0859 2.47061 7.81087 6.77145 6.4242L7.42378 6.20817C7.82664 6.07476 8.21735 6.47832 8.10063 6.88634C8.03044 7.13172 7.9634 7.38934 7.89811 7.6592L6.83645 12.1984C5.64478 17.3009 7.38895 20.1175 12.4914 21.3309L13.7348 21.6202Z" fill="white"/>
<path d="M18.6011 3.47755L16.7919 3.05505C13.1736 2.19922 11.0178 2.90338 9.75028 5.52505C9.42528 6.18588 9.16528 6.98755 8.94861 7.90838L7.88694 12.4475C6.82528 16.9759 8.22278 19.2075 12.7403 20.28L14.5603 20.7134C15.1886 20.865 15.7736 20.9625 16.3153 21.0059C19.6953 21.3309 21.4936 19.7492 22.4036 15.8384L23.4653 11.31C24.5269 6.78172 23.1403 4.53922 18.6011 3.47755ZM16.5644 14.4409C16.4669 14.8092 16.1419 15.0475 15.7736 15.0475C15.7086 15.0475 15.6436 15.0367 15.5678 15.0259L12.4153 14.2242C11.9819 14.1159 11.7219 13.6717 11.8303 13.2384C11.9386 12.805 12.3828 12.545 12.8161 12.6534L15.9686 13.455C16.4128 13.5634 16.6728 14.0075 16.5644 14.4409ZM19.7386 10.7792C19.6411 11.1475 19.3161 11.3859 18.9478 11.3859C18.8828 11.3859 18.8178 11.375 18.7419 11.3642L13.4878 10.0317C13.0544 9.92338 12.7944 9.47922 12.9028 9.04588C13.0111 8.61255 13.4553 8.35255 13.8886 8.46088L19.1428 9.79338C19.5869 9.89088 19.8469 10.335 19.7386 10.7792Z" fill="white"/>
</svg>
