<svg width="26" height="26" viewBox="0 0 26 26" fill="none" xmlns="http://www.w3.org/2000/svg">
<path d="M3.43408 8.05994L12.9999 13.5958L22.5007 8.0924" stroke="#445578" stroke-width="1.5" stroke-linecap="round" stroke-linejoin="round"/>
<path d="M13 23.4108V13.585" stroke="#445578" stroke-width="1.5" stroke-linecap="round" stroke-linejoin="round"/>
<path d="M10.7577 2.68663L4.97267 5.90416C3.66184 6.62999 2.58936 8.44997 2.58936 9.94497V16.0658C2.58936 17.5608 3.66184 19.3808 4.97267 20.1066L10.7577 23.3242C11.9927 24.0067 14.0185 24.0067 15.2535 23.3242L21.0385 20.1066C22.3494 19.3808 23.4218 17.5608 23.4218 16.0658V9.94497C23.4218 8.44997 22.3494 6.62999 21.0385 5.90416L15.2535 2.68663C14.0077 1.99329 11.9927 1.99329 10.7577 2.68663Z" stroke="#445578" stroke-width="1.5" stroke-linecap="round" stroke-linejoin="round"/>
<path d="M18.4163 14.3433V10.3784L8.1355 4.44165" stroke="#445578" stroke-width="1.5" stroke-linecap="round" stroke-linejoin="round"/>
</svg>
