<svg width="40" height="40" viewBox="0 0 40 40" fill="none" xmlns="http://www.w3.org/2000/svg">
<g clip-path="url(#clip0_1_329)">
<path d="M6.03482 6.03506L6.03484 6.03504C13.7464 -1.67831 26.2519 -1.67834 33.9651 6.0349C41.6783 13.7482 41.6783 26.2536 33.9651 33.965L33.9651 33.965C26.2519 41.6783 13.7464 41.6783 6.03516 33.9652L6.03511 33.9652C-1.67831 26.2536 -1.67834 13.7482 6.03482 6.03506ZM8.03844 8.03848C1.43179 14.6452 1.43175 25.3564 8.03859 31.9618C14.6437 38.5683 25.3549 38.5683 31.9618 31.9615C38.5683 25.3564 38.5683 14.6452 31.9616 8.03846C25.3549 1.4317 14.6437 1.43167 8.03844 8.03848Z" fill="#0CAF75" stroke="#E1F5F1" stroke-width="0.5"/>
<path d="M19.8232 17.82L20 17.9968L20.1767 17.82L26.0693 11.9274C26.6225 11.3742 27.5196 11.3742 28.0728 11.9274C28.626 12.4807 28.626 13.3777 28.0728 13.9309L22.1802 19.8235L22.0034 20.0002L22.1802 20.177L28.0723 26.0691C28.6256 26.6223 28.6256 27.5194 28.0723 28.0726C27.5191 28.6258 26.6221 28.6258 26.0688 28.0726L20.1767 22.1805L20 22.0037L19.8232 22.1805L13.9328 28.0709C13.3796 28.6241 12.4825 28.6241 11.9293 28.0709C11.3761 27.5177 11.3761 26.6206 11.9293 26.0674L17.8197 20.177L17.9965 20.0002L17.8197 19.8235L11.9271 13.9309C11.3739 13.3777 11.3739 12.4806 11.9271 11.9274C12.4804 11.3742 13.3774 11.3742 13.9306 11.9274L19.8232 17.82Z" fill="#0CAF75" stroke="#E1F5F1" stroke-width="0.5"/>
</g>
<defs>
<clipPath id="clip0_1_329">
<rect width="40" height="40" fill="white"/>
</clipPath>
</defs>
</svg>
