<svg width="40" height="40" viewBox="0 0 40 40" fill="none" xmlns="http://www.w3.org/2000/svg">
<path d="M36.6667 10V14.0334C36.6667 16.6667 35.0001 18.3334 32.3667 18.3334H26.6667V6.68337C26.6667 4.83337 28.1834 3.33337 30.0334 3.33337C31.8501 3.35004 33.5167 4.08337 34.7167 5.28337C35.9167 6.50004 36.6667 8.16671 36.6667 10Z" stroke="#09B08C" stroke-width="2.2" stroke-miterlimit="10" stroke-linecap="round" stroke-linejoin="round"/>
<path d="M3.33325 11.6667V35C3.33325 36.3834 4.89992 37.1667 5.99992 36.3334L8.84992 34.2C9.51659 33.7 10.4499 33.7667 11.0499 34.3667L13.8166 37.15C14.4666 37.8 15.5333 37.8 16.1833 37.15L18.9833 34.35C19.5666 33.7667 20.4999 33.7 21.1499 34.2L23.9999 36.3334C25.0999 37.15 26.6666 36.3667 26.6666 35V6.66671C26.6666 4.83337 28.1666 3.33337 29.9999 3.33337H11.6666H9.99992C4.99992 3.33337 3.33325 6.31671 3.33325 10V11.6667Z" stroke="#09B08C" stroke-width="2.2" stroke-miterlimit="10" stroke-linecap="round" stroke-linejoin="round"/>
<path d="M15 21.683H20" stroke="#09B08C" stroke-width="2.2" stroke-linecap="round" stroke-linejoin="round"/>
<path d="M15 15.0162H20" stroke="#09B08C" stroke-width="2.2" stroke-linecap="round" stroke-linejoin="round"/>
<path d="M9.99268 21.6666H10.0076" stroke="#09B08C" stroke-width="2.2" stroke-linecap="round" stroke-linejoin="round"/>
<path d="M9.99268 15H10.0076" stroke="#09B08C" stroke-width="2.2" stroke-linecap="round" stroke-linejoin="round"/>
</svg>
