<svg width="40" height="40" viewBox="0 0 40 40" fill="none" xmlns="http://www.w3.org/2000/svg">
<path d="M22.1 32.5H6.66667C5.562 32.4987 4.50296 32.0593 3.72185 31.2781C2.94073 30.497 2.50132 29.438 2.5 28.3333V6.66667C2.50132 5.562 2.94073 4.50296 3.72185 3.72185C4.50296 2.94073 5.562 2.50132 6.66667 2.5H28.3333C29.438 2.50132 30.497 2.94073 31.2781 3.72185C32.0593 4.50296 32.4987 5.562 32.5 6.66667V21.85C32.5 22.071 32.4122 22.283 32.2559 22.4393C32.0996 22.5955 31.8877 22.6833 31.6667 22.6833C31.4457 22.6833 31.2337 22.5955 31.0774 22.4393C30.9211 22.283 30.8333 22.071 30.8333 21.85V6.66667C30.8333 6.00363 30.5699 5.36774 30.1011 4.8989C29.6323 4.43006 28.9964 4.16667 28.3333 4.16667H6.66667C6.00363 4.16667 5.36774 4.43006 4.8989 4.8989C4.43006 5.36774 4.16667 6.00363 4.16667 6.66667V28.3333C4.16667 28.9964 4.43006 29.6323 4.8989 30.1011C5.36774 30.5699 6.00363 30.8333 6.66667 30.8333H22.1C22.321 30.8333 22.533 30.9211 22.6893 31.0774C22.8455 31.2337 22.9333 31.4457 22.9333 31.6667C22.9333 31.8877 22.8455 32.0996 22.6893 32.2559C22.533 32.4122 22.321 32.5 22.1 32.5Z" fill="#0CAF75"/>
<path d="M10 12.5C9.77902 12.5 9.56709 12.4121 9.41085 12.2558L7.74418 10.5892C7.59238 10.432 7.50839 10.2215 7.51029 10.003C7.51218 9.7845 7.59982 9.57549 7.75433 9.42098C7.90884 9.26648 8.11785 9.17884 8.33635 9.17694C8.55484 9.17504 8.76534 9.25904 8.92251 9.41083L10.0617 10.55L13.645 7.6825C13.7305 7.6141 13.8286 7.56321 13.9337 7.53273C14.0389 7.50224 14.149 7.49277 14.2578 7.50484C14.3666 7.51691 14.4719 7.55029 14.5678 7.60308C14.6637 7.65587 14.7483 7.72703 14.8167 7.8125C14.8851 7.89797 14.936 7.99607 14.9665 8.10121C14.9969 8.20635 15.0064 8.31646 14.9943 8.42526C14.9823 8.53406 14.9489 8.63941 14.8961 8.73531C14.8433 8.83121 14.7721 8.91577 14.6867 8.98417L10.52 12.3175C10.3724 12.4355 10.189 12.4999 10 12.5ZM26.6667 10.8333H19.1667C18.9457 10.8333 18.7337 10.7455 18.5774 10.5893C18.4211 10.433 18.3333 10.221 18.3333 10C18.3333 9.77899 18.4211 9.56702 18.5774 9.41074C18.7337 9.25446 18.9457 9.16667 19.1667 9.16667H26.6667C26.8877 9.16667 27.0997 9.25446 27.2559 9.41074C27.4122 9.56702 27.5 9.77899 27.5 10C27.5 10.221 27.4122 10.433 27.2559 10.5893C27.0997 10.7455 26.8877 10.8333 26.6667 10.8333Z" fill="#0CAF75"/>
<path d="M10 12.5C9.77902 12.5 9.56709 12.4121 9.41085 12.2558L7.74418 10.5892C7.59238 10.432 7.50839 10.2215 7.51029 10.003C7.51218 9.7845 7.59982 9.57549 7.75433 9.42098C7.90884 9.26648 8.11785 9.17884 8.33635 9.17694C8.55484 9.17504 8.76534 9.25904 8.92251 9.41083L10.0617 10.55L13.645 7.6825C13.7305 7.6141 13.8286 7.56321 13.9337 7.53273C14.0389 7.50224 14.149 7.49277 14.2578 7.50484C14.3666 7.51691 14.4719 7.55029 14.5678 7.60308C14.6637 7.65587 14.7483 7.72703 14.8167 7.8125C14.8851 7.89797 14.936 7.99607 14.9665 8.10121C14.9969 8.20635 15.0064 8.31646 14.9943 8.42526C14.9823 8.53406 14.9489 8.63941 14.8961 8.73531C14.8433 8.83121 14.7721 8.91577 14.6867 8.98417L10.52 12.3175C10.3724 12.4355 10.189 12.4999 10 12.5ZM26.6667 10.8333H19.1667C18.9457 10.8333 18.7337 10.7455 18.5774 10.5893C18.4211 10.433 18.3333 10.221 18.3333 10C18.3333 9.77899 18.4211 9.56702 18.5774 9.41074C18.7337 9.25446 18.9457 9.16667 19.1667 9.16667H26.6667C26.8877 9.16667 27.0997 9.25446 27.2559 9.41074C27.4122 9.56702 27.5 9.77899 27.5 10C27.5 10.221 27.4122 10.433 27.2559 10.5893C27.0997 10.7455 26.8877 10.8333 26.6667 10.8333ZM10 20C9.77902 20 9.56709 19.9121 9.41085 19.7558L7.74418 18.0892C7.59238 17.932 7.50839 17.7215 7.51029 17.503C7.51218 17.2845 7.59982 17.0755 7.75433 16.921C7.90884 16.7665 8.11785 16.6788 8.33635 16.6769C8.55484 16.675 8.76534 16.759 8.92251 16.9108L10.0617 18.05L13.645 15.1825C13.8176 15.0444 14.038 14.9805 14.2578 15.0048C14.4775 15.0292 14.6785 15.1399 14.8167 15.3125C14.9548 15.4851 15.0187 15.7055 14.9943 15.9253C14.97 16.145 14.8593 16.346 14.6867 16.4842L10.52 19.8175C10.3724 19.9355 10.189 19.9999 10 20ZM26.6667 18.3333H19.1667C18.9457 18.3333 18.7337 18.2455 18.5774 18.0893C18.4211 17.933 18.3333 17.721 18.3333 17.5C18.3333 17.279 18.4211 17.067 18.5774 16.9107C18.7337 16.7545 18.9457 16.6667 19.1667 16.6667H26.6667C26.8877 16.6667 27.0997 16.7545 27.2559 16.9107C27.4122 17.067 27.5 17.279 27.5 17.5C27.5 17.721 27.4122 17.933 27.2559 18.0893C27.0997 18.2455 26.8877 18.3333 26.6667 18.3333ZM10 27.5C9.77902 27.5 9.56709 27.4121 9.41085 27.2558L7.74418 25.5892C7.59238 25.432 7.50839 25.2215 7.51029 25.003C7.51218 24.7845 7.59982 24.5755 7.75433 24.421C7.90884 24.2665 8.11785 24.1788 8.33635 24.1769C8.55484 24.175 8.76534 24.259 8.92251 24.4108L10.0617 25.55L13.645 22.6825C13.8176 22.5444 14.038 22.4805 14.2578 22.5048C14.4775 22.5292 14.6785 22.6399 14.8167 22.8125C14.9548 22.9851 15.0187 23.2055 14.9943 23.4253C14.97 23.645 14.8593 23.846 14.6867 23.9842L10.52 27.3175C10.3724 27.4355 10.189 27.4999 10 27.5ZM22.9333 25.8333H19.1667C18.9457 25.8333 18.7337 25.7455 18.5774 25.5893C18.4211 25.433 18.3333 25.221 18.3333 25C18.3333 24.779 18.4211 24.567 18.5774 24.4107C18.7337 24.2545 18.9457 24.1667 19.1667 24.1667H22.9333C23.1544 24.1667 23.3663 24.2545 23.5226 24.4107C23.6789 24.567 23.7667 24.779 23.7667 25C23.7667 25.221 23.6789 25.433 23.5226 25.5893C23.3663 25.7455 23.1544 25.8333 22.9333 25.8333Z" fill="#0CAF75"/>
<path d="M29.1668 37.5C27.5187 37.5 25.9075 37.0113 24.5371 36.0956C23.1667 35.1799 22.0986 33.8784 21.4678 32.3557C20.8371 30.833 20.6721 29.1574 20.9936 27.5409C21.3152 25.9244 22.1088 24.4395 23.2743 23.2741C24.4397 22.1087 25.9246 21.315 27.5411 20.9935C29.1576 20.6719 30.8331 20.8369 32.3559 21.4677C33.8786 22.0984 35.1801 23.1665 36.0957 24.5369C37.0114 25.9073 37.5002 27.5185 37.5002 29.1667C37.4977 31.3761 36.619 33.4943 35.0567 35.0565C33.4944 36.6188 31.3762 37.4976 29.1668 37.5ZM29.1668 22.5C27.8483 22.5 26.5594 22.891 25.463 23.6235C24.3667 24.3561 23.5122 25.3973 23.0076 26.6154C22.5031 27.8336 22.371 29.1741 22.6283 30.4673C22.8855 31.7605 23.5204 32.9484 24.4528 33.8807C25.3851 34.8131 26.573 35.448 27.8662 35.7052C29.1594 35.9625 30.4999 35.8304 31.7181 35.3259C32.9362 34.8213 33.9774 33.9668 34.71 32.8705C35.4425 31.7741 35.8335 30.4852 35.8335 29.1667C35.8315 27.3992 35.1285 25.7046 33.8787 24.4548C32.6289 23.205 30.9343 22.502 29.1668 22.5Z" fill="#0CAF75"/>
<path d="M28.3333 32.5C28.1124 32.5 27.9004 32.4121 27.7442 32.2558L25.2442 29.7558C25.0924 29.5987 25.0084 29.3882 25.0103 29.1697C25.0122 28.9512 25.0998 28.7422 25.2543 28.5876C25.4088 28.4331 25.6178 28.3455 25.8363 28.3436C26.0548 28.3417 26.2653 28.4257 26.4225 28.5775L28.3333 30.4883L31.9108 26.9108C32.068 26.759 32.2785 26.675 32.497 26.6769C32.7155 26.6788 32.9245 26.7665 33.079 26.921C33.2335 27.0755 33.3212 27.2845 33.3231 27.503C33.325 27.7215 33.241 27.932 33.0892 28.0892L28.9225 32.2558C28.7663 32.4121 28.5543 32.5 28.3333 32.5Z" fill="#0CAF75"/>
</svg>
