<svg width="40" height="40" viewBox="0 0 40 40" fill="none" xmlns="http://www.w3.org/2000/svg">
<path d="M36.0338 15.5362C36.0727 15.7181 36.0755 15.906 36.0419 16.089C36.0082 16.272 35.9389 16.4467 35.8378 16.6029C35.7366 16.7591 35.6058 16.8939 35.4526 16.9995C35.2994 17.1052 35.1269 17.1796 34.9449 17.2186C34.7629 17.2575 34.5751 17.2603 34.392 17.2266C34.209 17.193 34.0344 17.1237 33.8782 17.0225C33.722 16.9214 33.5872 16.7905 33.4816 16.6373C33.3759 16.4841 33.3015 16.3116 33.2625 16.1297L33.2625 16.1297C31.8496 9.53519 25.9223 4.75 19.1665 4.75C11.2168 4.75 4.74986 11.2169 4.74986 19.1666C4.74986 25.9223 9.53505 31.8498 16.1291 33.2633L16.1291 33.2633C16.311 33.3022 16.4835 33.3767 16.6366 33.4823C16.7898 33.5879 16.9206 33.7226 17.0217 33.8788C17.1227 34.035 17.1921 34.2095 17.2257 34.3925C17.2593 34.5755 17.2565 34.7633 17.2176 34.9452C17.1786 35.1271 17.1042 35.2995 16.9986 35.4527C16.893 35.6058 16.7582 35.7366 16.602 35.8377C16.4459 35.9388 16.2713 36.0081 16.0883 36.0417C15.9054 36.0753 15.7176 36.0726 15.5357 36.0336C7.64494 34.3425 1.9165 27.2481 1.9165 19.1666C1.9165 9.65511 9.65535 1.91664 19.1665 1.91664C27.2479 1.91664 34.3426 7.64553 36.0338 15.5362ZM36.0338 15.5362L36.2782 15.4838M36.0338 15.5362C36.0338 15.5362 36.0338 15.5362 36.0338 15.5362L36.2782 15.4838M36.2782 15.4838C36.3241 15.6979 36.3273 15.9189 36.2877 16.1342C36.2482 16.3495 36.1666 16.5549 36.0476 16.7387C35.9287 16.9225 35.7747 17.0811 35.5945 17.2053C35.4142 17.3296 35.2113 17.4172 34.9972 17.463C34.7832 17.5089 34.5622 17.5121 34.3469 17.4725C34.1316 17.433 33.9261 17.3514 33.7424 17.2324C33.5586 17.1135 33.4 16.9595 33.2757 16.7793C33.1515 16.599 33.0639 16.3961 33.0181 16.182L15.4833 36.278C7.47705 34.5622 1.6665 27.3657 1.6665 19.1666C1.6665 9.51703 9.51728 1.66664 19.1665 1.66664C27.3656 1.66664 34.5624 7.47766 36.2782 15.4838Z" fill="#0CAF75" stroke="#E1F5F1" stroke-width="0.5"/>
<path d="M17.5 17.75H17.75V17.5V9.16755C17.7528 8.79379 17.9032 8.43626 18.1684 8.17286C18.4338 7.90927 18.7927 7.76133 19.1667 7.76133C19.5408 7.76133 19.8996 7.90927 20.1651 8.17286C20.4303 8.43626 20.5806 8.79379 20.5834 9.16755V19.1666C20.5834 19.5424 20.4341 19.9027 20.1684 20.1684C19.9027 20.4341 19.5424 20.5833 19.1667 20.5834H12.5009C12.1272 20.5806 11.7697 20.4302 11.5063 20.165C11.2427 19.8996 11.0947 19.5407 11.0947 19.1667C11.0947 18.7926 11.2427 18.4337 11.5063 18.1683C11.7697 17.9031 12.1272 17.7528 12.5009 17.75H17.5ZM29.1667 36.9166H29.167C31.2216 36.9143 33.1914 36.0971 34.6443 34.6443C36.0971 33.1914 36.9144 31.2216 36.9167 29.1669V29.1666C36.9167 27.6338 36.4621 26.1355 35.6106 24.861C34.759 23.5865 33.5486 22.5932 32.1325 22.0066C30.7163 21.42 29.1581 21.2665 27.6547 21.5656C26.1514 21.8646 24.7705 22.6027 23.6866 23.6866C22.6027 24.7704 21.8646 26.1513 21.5656 27.6547C21.2666 29.158 21.42 30.7163 22.0066 32.1324C22.5932 33.5486 23.5865 34.759 24.861 35.6105C26.1355 36.4621 27.6339 36.9166 29.1667 36.9166ZM18.5834 29.1666C18.5834 23.3308 23.3315 18.5834 29.1667 18.5834C35.002 18.5834 39.75 23.3307 39.75 29.1666C39.75 35.0025 35.0019 39.75 29.1667 39.75C23.3315 39.75 18.5834 35.0025 18.5834 29.1666Z" fill="#0CAF75" stroke="#E1F5F1" stroke-width="0.5"/>
<path d="M27.75 29.1684L27.75 29.1684C27.7488 29.3552 27.7845 29.5405 27.8551 29.7135C27.9257 29.8865 28.0298 30.0438 28.1615 30.1764C28.2932 30.309 28.4498 30.4142 28.6223 30.486C28.7948 30.5578 28.9799 30.5948 29.1667 30.5948C29.3536 30.5948 29.5386 30.5578 29.7111 30.486C29.8836 30.4142 30.0402 30.309 30.1719 30.1764C30.3036 30.0438 30.4077 29.8865 30.4784 29.7135C30.549 29.5405 30.5847 29.3552 30.5834 29.1684L30.5834 29.1666L30.5834 25C30.5834 25 30.5834 25 30.5834 25C30.5834 24.6243 30.4341 24.264 30.1684 23.9983C29.9027 23.7326 29.5424 23.5834 29.1667 23.5834L27.75 29.1684ZM27.75 29.1684V29.1666M27.75 29.1684V29.1666M27.75 29.1666V25C27.75 25 27.75 25 27.75 25C27.7501 24.6243 27.8993 24.264 28.165 23.9983C28.4307 23.7326 28.791 23.5834 29.1667 23.5834L27.75 29.1666Z" fill="#0CAF75" stroke="#E1F5F1" stroke-width="0.5"/>
<path d="M30.5833 33.3334C30.5833 34.1157 29.949 34.75 29.1666 34.75C28.3843 34.75 27.75 34.1157 27.75 33.3334C27.75 32.551 28.3843 31.9167 29.1666 31.9167C29.949 31.9167 30.5833 32.551 30.5833 33.3334Z" fill="#0CAF75" stroke="#E1F5F1" stroke-width="0.5"/>
</svg>
