<svg width="40" height="40" viewBox="0 0 40 40" fill="none" xmlns="http://www.w3.org/2000/svg">
<path d="M18.5832 12.3567V11.7531L18.1564 12.1799L16.003 14.3333C15.736 14.5904 15.3788 14.7327 15.008 14.7295C14.6366 14.7262 14.2812 14.5773 14.0186 14.3146C13.7559 14.0519 13.6069 13.6966 13.6037 13.3252C13.6005 12.9544 13.7427 12.5972 13.9999 12.3302L18.9983 7.3318C18.9983 7.33179 18.9983 7.33179 18.9983 7.33178C19.2639 7.06621 19.6242 6.91702 19.9998 6.91702C20.3755 6.91702 20.7357 7.06621 21.0014 7.33178C21.0014 7.33179 21.0014 7.33179 21.0014 7.3318L26.0014 12.3318L26.0014 12.3318L26.0045 12.3348C26.1398 12.4655 26.2477 12.6218 26.322 12.7947C26.3962 12.9675 26.4353 13.1534 26.4369 13.3415C26.4386 13.5296 26.4027 13.7162 26.3315 13.8903C26.2603 14.0644 26.1551 14.2225 26.0221 14.3555C25.889 14.4886 25.7309 14.5938 25.5568 14.665C25.3827 14.7362 25.1961 14.7721 25.008 14.7704C24.8199 14.7688 24.634 14.7297 24.4612 14.6555C24.2883 14.5812 24.132 14.4733 24.0013 14.338L24.0014 14.338L23.9983 14.3349L21.8433 12.1799L21.4165 11.7531V12.3567V25C21.4165 25.3757 21.2672 25.7361 21.0016 26.0017C20.7359 26.2674 20.3756 26.4167 19.9998 26.4167C19.6241 26.4167 19.2638 26.2674 18.9981 26.0017C18.7324 25.7361 18.5832 25.3757 18.5832 25V12.3567ZM6.9165 31.6667C6.9165 31.2909 7.06576 30.9306 7.33144 30.6649C7.59711 30.3993 7.95745 30.25 8.33317 30.25H31.6665C32.0422 30.25 32.4026 30.3993 32.6682 30.6649C32.9339 30.9306 33.0832 31.2909 33.0832 31.6667C33.0832 32.0424 32.9339 32.4027 32.6682 32.6684C32.4026 32.9341 32.0422 33.0833 31.6665 33.0833H8.33317C7.95745 33.0833 7.59711 32.9341 7.33144 32.6684C7.06576 32.4027 6.9165 32.0424 6.9165 31.6667Z" fill="#0CAF75" stroke="#E1F5F1" stroke-width="0.5"/>
</svg>
