<svg width="24" height="24" viewBox="0 0 24 24" fill="none" xmlns="http://www.w3.org/2000/svg">
<g clip-path="url(#clip0_1_3007)">
<mask id="mask0_1_3007" style="mask-type:luminance" maskUnits="userSpaceOnUse" x="0" y="0" width="24" height="24">
<path d="M23.4999 23.5V0.500071H0.5V23.5H23.4999Z" fill="white" stroke="white"/>
</mask>
<g mask="url(#mask0_1_3007)">
<path d="M0.702759 18.3282H23.2971" stroke="#445578" stroke-miterlimit="22.926" stroke-linecap="round" stroke-linejoin="round"/>
<path d="M11.9999 12.2345C13.3682 12.2345 14.4842 11.1185 14.4842 9.75013C14.4842 8.38181 13.3682 7.26576 11.9999 7.26576C10.6315 7.26576 9.5155 8.38181 9.5155 9.75013C9.5155 11.1185 10.6315 12.2345 11.9999 12.2345Z" stroke="#445578" stroke-miterlimit="22.926" stroke-linecap="round" stroke-linejoin="round"/>
<path d="M0.75 0.703259H3.56249V3.23455C3.56249 4.00794 2.92968 4.64075 2.15625 4.64075C1.38281 4.64075 0.75 4.00798 0.75 3.23455V0.703259Z" stroke="#445578" stroke-miterlimit="22.926" stroke-linecap="round" stroke-linejoin="round"/>
<path d="M3.5625 0.703259H6.37499V3.23455C6.37499 4.00794 5.74218 4.64075 4.96875 4.64075C4.19531 4.64075 3.5625 4.00798 3.5625 3.23455V0.703259Z" stroke="#445578" stroke-miterlimit="22.926" stroke-linecap="round" stroke-linejoin="round"/>
<path d="M6.375 0.703259H9.18749V3.23455C9.18749 4.00794 8.55468 4.64075 7.78125 4.64075C7.00781 4.64075 6.375 4.00798 6.375 3.23455V0.703259Z" stroke="#445578" stroke-miterlimit="22.926" stroke-linecap="round" stroke-linejoin="round"/>
<path d="M9.18738 0.703259H11.9999V3.23455C11.9999 4.00794 11.3671 4.64075 10.5936 4.64075C9.82019 4.64075 9.18738 4.00798 9.18738 3.23455V0.703259Z" stroke="#445578" stroke-miterlimit="22.926" stroke-linecap="round" stroke-linejoin="round"/>
<path d="M11.9999 0.703259H14.8124V3.23455C14.8124 4.00794 14.1796 4.64075 13.4061 4.64075C12.6327 4.64075 11.9999 4.00798 11.9999 3.23455V0.703259Z" stroke="#445578" stroke-miterlimit="22.926" stroke-linecap="round" stroke-linejoin="round"/>
<path d="M14.8125 0.703259H17.625V3.23455C17.625 4.00794 16.9922 4.64075 16.2187 4.64075C15.4453 4.64075 14.8125 4.00798 14.8125 3.23455V0.703259Z" stroke="#445578" stroke-miterlimit="22.926" stroke-linecap="round" stroke-linejoin="round"/>
<path d="M17.6249 0.703259H20.4374V3.23455C20.4374 4.00794 19.8046 4.64075 19.0312 4.64075C18.2577 4.64075 17.6249 4.00798 17.6249 3.23455V0.703259Z" stroke="#445578" stroke-miterlimit="22.926" stroke-linecap="round" stroke-linejoin="round"/>
<path d="M20.4374 0.703259H23.2499V3.23455C23.2499 4.00794 22.6171 4.64075 21.8436 4.64075C21.0702 4.64075 20.4374 4.00798 20.4374 3.23455V0.703259Z" stroke="#445578" stroke-miterlimit="22.926" stroke-linecap="round" stroke-linejoin="round"/>
<path d="M2.15625 4.64074V18.3282" stroke="#445578" stroke-miterlimit="22.926" stroke-linecap="round" stroke-linejoin="round"/>
<path d="M21.8436 4.64074V18.3282" stroke="#445578" stroke-miterlimit="22.926" stroke-linecap="round" stroke-linejoin="round"/>
<path d="M1.21875 23.2969V18.3283H22.9218V23.2969" stroke="#445578" stroke-miterlimit="22.926" stroke-linecap="round" stroke-linejoin="round"/>
<path d="M16.6406 17.9064V14.9533C16.6406 13.5611 15.5013 12.422 14.1093 12.422H9.89062C8.49867 12.422 7.35938 13.5613 7.35938 14.9533V17.9064" stroke="#445578" stroke-miterlimit="22.926" stroke-linecap="round" stroke-linejoin="round"/>
<path d="M9.93738 12.8908V15.5157H14.0624V12.9096" stroke="#445578" stroke-miterlimit="22.926" stroke-linecap="round" stroke-linejoin="round"/>
<path d="M4.92188 23.2969V22.5473C5.69639 22.5473 6.32812 21.9156 6.32812 21.1411H17.8125C17.8125 21.9156 18.4442 22.5473 19.2187 22.5473V23.2969" stroke="#445578" stroke-miterlimit="22.926" stroke-linecap="round" stroke-linejoin="round"/>
</g>
</g>
<defs>
<clipPath id="clip0_1_3007">
<rect width="24" height="24" fill="white"/>
</clipPath>
</defs>
</svg>
