<svg width="24" height="24" viewBox="0 0 24 24" fill="none" xmlns="http://www.w3.org/2000/svg">
<path d="M12.7207 1.84538C7.97924 1.84538 3.93524 5.1405 2.85299 9.6105C2.69384 9.43288 2.47597 9.3186 2.23936 9.28864C2.00275 9.25867 1.76328 9.31503 1.56487 9.44738C1.34704 9.59347 1.19595 9.8199 1.14465 10.0771C1.09335 10.3343 1.14601 10.6014 1.29112 10.8199L2.61637 12.8066C2.73213 12.9749 2.89625 13.1041 3.08702 13.1771C3.27779 13.2501 3.48622 13.2634 3.68474 13.2154C3.79462 13.1876 3.89099 13.1366 3.98887 13.0796L5.97487 11.7551C6.19291 11.6092 6.34421 11.3828 6.3956 11.1255C6.44698 10.8683 6.39426 10.6011 6.24899 10.3826C6.17715 10.2741 6.08446 10.1809 5.97631 10.1085C5.86816 10.0361 5.74671 9.98585 5.61899 9.96075C5.35949 9.90825 5.09587 9.96075 4.87537 10.1081L4.74599 10.1944C5.56912 6.52875 8.83799 3.825 12.7207 3.825C17.2282 3.825 20.8954 7.4925 20.8954 11.9996C20.8954 16.5068 17.2279 20.1742 12.7207 20.1742C11.2336 20.1758 9.77428 19.771 8.50035 19.0037C7.22643 18.2365 6.18629 17.1358 5.49224 15.8205C5.43144 15.7051 5.34832 15.6029 5.24771 15.5198C5.14709 15.4368 5.03098 15.3746 4.90612 15.3367C4.78217 15.2984 4.65183 15.285 4.52268 15.2975C4.39353 15.31 4.26816 15.3481 4.15387 15.4095C3.92216 15.5328 3.74879 15.743 3.67175 15.994C3.59471 16.2449 3.62028 16.5161 3.74287 16.7482C4.60512 18.3815 5.89707 19.7483 7.47928 20.701C9.06148 21.6537 10.8738 22.1562 12.7207 22.1542C18.3199 22.1542 22.8754 17.5988 22.8754 11.9996C22.8754 6.4005 18.3199 1.84538 12.7207 1.84538Z" fill="#445578"/>
</svg>
