<svg width="40" height="40" viewBox="0 0 40 40" fill="none" xmlns="http://www.w3.org/2000/svg">
<path d="M14.4531 23.883C14.4531 26.033 16.1031 27.7664 18.1531 27.7664H22.3365C24.1198 27.7664 25.5698 26.2497 25.5698 24.383C25.5698 22.3497 24.6865 21.633 23.3698 21.1664L16.6531 18.833C15.3365 18.3664 14.4531 17.6497 14.4531 15.6164C14.4531 13.7497 15.9031 12.233 17.6865 12.233H21.8698C23.9198 12.233 25.5698 13.9664 25.5698 16.1164" stroke="#09B08C" stroke-width="2.2" stroke-linecap="round" stroke-linejoin="round"/>
<path d="M20 10V30" stroke="#09B08C" stroke-width="2.2" stroke-linecap="round" stroke-linejoin="round"/>
<path d="M19.9999 36.6667C29.2047 36.6667 36.6666 29.2048 36.6666 20C36.6666 10.7953 29.2047 3.33337 19.9999 3.33337C10.7952 3.33337 3.33325 10.7953 3.33325 20C3.33325 29.2048 10.7952 36.6667 19.9999 36.6667Z" stroke="#09B08C" stroke-width="2.2" stroke-linecap="round" stroke-linejoin="round"/>
</svg>
