<svg width="7" height="12" viewBox="0 0 7 12" fill="none" xmlns="http://www.w3.org/2000/svg">
<path fill-rule="evenodd" clip-rule="evenodd" d="M3.35769 0.173866C3.32156 0.190266 2.55612 0.941193 1.65671 1.84259C0.208132 3.29439 0.0197375 3.49089 0.00659983 3.56363C-0.024843 3.73763 0.0582965 3.9035 0.208394 3.96621C0.314788 4.01066 6.68524 4.01066 6.79164 3.96621C6.94178 3.90348 7.02494 3.73748 6.99335 3.56363C6.98012 3.49095 6.79059 3.29325 5.34321 1.8425C4.39316 0.890241 3.67851 0.190704 3.63757 0.172924C3.54955 0.134738 3.44317 0.135088 3.35769 0.173866Z" fill="#62636A"/>
<path fill-rule="evenodd" clip-rule="evenodd" d="M3.35769 11.8261C3.32156 11.8097 2.55612 11.0588 1.65671 10.1574C0.208132 8.70561 0.0197375 8.50911 0.00659983 8.43637C-0.024843 8.26237 0.0582965 8.0965 0.208394 8.03379C0.314788 7.98934 6.68524 7.98934 6.79164 8.03379C6.94178 8.09652 7.02494 8.26252 6.99335 8.43637C6.98012 8.50905 6.79059 8.70675 5.34321 10.1575C4.39316 11.1098 3.67851 11.8093 3.63757 11.8271C3.54955 11.8653 3.44317 11.8649 3.35769 11.8261Z" fill="#62636A"/>
</svg>
